# xmcd CD database file
#
# Track frame offsets:
#	150
#	16563
#	31890
#	45299
#	65709
#	82667
#	102442
#	115899
#	137437
#	152898
#	172139
#	187302
#	205523
#	223239
#	239272
#
# Disc length: 3425 seconds
#
# Revision: 4
# Processed by: cddbd v1.5.2PL0 Copyright (c) Steve Scherf et al.
# Submitted via: CDex 1.70beta3
#
DISCID=c60d5f0f
DTITLE=Gotthard - Lipservice
DYEAR=2005
DGENRE=Melodic Hard Rock
TTITLE0=All We Are
TTITLE1=Dream On
TTITLE2=Lift U Up
TTITLE3=Everything I Want
TTITLE4=Cupid's Arrow
TTITLE5=I Wonder
TTITLE6=I'm Alive
TTITLE7=I've Seen An Angel Cry
TTITLE8=Stay For The Night
TTITLE9=Anytime Anywhere
TTITLE10=Said and Done
TTITLE11=The Other Side Of Me
TTITLE12=Nothing Left At All
TTITLE13=And Then Goodbye
TTITLE14=Nobody's Home (Bonus Tracks)
EXTD=YEAR: 2005
EXTT0=
EXTT1=
EXTT2=
EXTT3=
EXTT4=
EXTT5=
EXTT6=
EXTT7=
EXTT8=
EXTT9=
EXTT10=
EXTT11=
EXTT12=
EXTT13=
EXTT14=
PLAYORDER=
